<svg width="35" height="35" viewBox="0 0 35 35" fill="none" xmlns="http://www.w3.org/2000/svg">
<path fill-rule="evenodd" clip-rule="evenodd" d="M5.83331 17.4998C5.83331 16.6944 6.48623 16.0415 7.29165 16.0415H27.7083C28.5137 16.0415 29.1666 16.6944 29.1666 17.4998C29.1666 18.3053 28.5137 18.9582 27.7083 18.9582H7.29165C6.48623 18.9582 5.83331 18.3053 5.83331 17.4998Z" fill="#465EFF"/>
<path fill-rule="evenodd" clip-rule="evenodd" d="M16.4688 6.26063C17.0383 5.69112 17.9617 5.69112 18.5312 6.26063L28.7396 16.469C29.3091 17.0385 29.3091 17.9618 28.7396 18.5314L18.5312 28.7397C17.9617 29.3092 17.0383 29.3092 16.4688 28.7397C15.8993 28.1702 15.8993 27.2468 16.4688 26.6773L25.646 17.5002L16.4688 8.32303C15.8993 7.75351 15.8993 6.83015 16.4688 6.26063Z" fill="#465EFF"/>
</svg>
